<?xml version="1.0" standalone="no"?>
<!DOCTYPE svg PUBLIC "-//W3C//DTD SVG 20010904//EN"
 "http://www.w3.org/TR/2001/REC-SVG-20010904/DTD/svg10.dtd">
<svg version="1.0" xmlns="http://www.w3.org/2000/svg"
 width="269.000000pt" height="608.000000pt" viewBox="0 0 269.000000 608.000000"
 preserveAspectRatio="xMidYMid meet">
<metadata>
Created by potrace 1.16, written by Peter Selinger 2001-2019
</metadata>
<g transform="translate(0.000000,608.000000) scale(0.100000,-0.100000)"
fill="#000000" stroke="none">
<path d="M0 4558 c0 -1449 1 -1528 18 -1528 28 1 105 19 130 32 12 6 22 19 22
28 0 18 74 46 113 44 10 -1 17 6 17 17 0 12 -7 19 -20 19 -11 0 -20 4 -20 10
0 14 29 27 78 35 34 5 45 12 53 33 6 15 20 37 31 49 13 14 23 39 25 65 5 74 6
78 29 78 27 0 92 -27 111 -46 8 -8 23 -19 33 -24 15 -8 17 -15 10 -34 -5 -15
-5 -27 3 -35 8 -8 7 -19 -6 -41 l-18 -29 31 -16 c48 -25 86 -12 94 29 7 36 24
46 82 46 29 0 33 -4 42 -42 9 -34 8 -47 -3 -63 -8 -11 -22 -29 -30 -41 -14
-19 -13 -22 22 -45 30 -20 37 -30 35 -52 -2 -21 6 -32 40 -57 44 -32 53 -50
31 -57 -7 -3 -17 7 -23 21 -7 18 -17 26 -34 26 -13 0 -26 7 -30 15 -3 8 -11
15 -17 15 -7 0 -10 -3 -7 -6 3 -3 0 -28 -7 -56 l-14 -50 35 5 c24 4 38 1 47
-9 45 -57 67 -76 67 -60 0 9 -4 16 -8 16 -4 0 -8 9 -9 20 -2 27 7 25 40 -10
16 -17 33 -30 38 -30 5 0 9 -12 9 -26 0 -25 56 -105 93 -132 9 -7 15 -17 12
-22 -3 -5 -1 -11 5 -15 6 -3 18 -23 29 -44 10 -22 23 -45 29 -52 46 -56 64
-80 60 -84 -2 -3 -30 9 -62 25 -31 17 -66 30 -77 30 -11 0 -30 7 -43 15 -32
21 -126 55 -152 55 -42 0 -123 41 -126 64 -2 11 -9 21 -16 21 -19 0 -38 -59
-46 -141 -4 -37 -10 -72 -13 -77 -4 -6 -5 -36 -4 -68 2 -53 1 -58 -21 -62
l-23 -4 24 -2 c23 -1 23 -2 19 -101 -2 -55 -1 -100 2 -100 7 0 -4 -116 -14
-148 -10 -29 19 -42 42 -18 10 10 12 16 4 16 -20 0 -14 22 13 50 22 23 24 29
11 39 -13 11 -12 17 6 46 21 37 17 59 -12 50 -13 -4 -19 1 -22 18 -5 24 -3 25
46 28 14 1 27 8 31 16 4 12 0 14 -19 9 -20 -5 -25 -1 -31 21 -3 14 -2 29 2 32
13 9 15 69 3 76 -13 8 -13 55 0 55 19 0 23 30 7 48 -13 14 -13 22 -3 47 7 17
14 35 15 40 11 43 18 45 81 22 48 -18 63 -20 79 -10 21 13 31 8 31 -18 0 -12
10 -21 28 -25 25 -5 97 -36 132 -56 8 -4 30 -16 48 -25 36 -19 37 -33 4 -48
-29 -13 -28 -23 1 -19 25 5 72 -30 62 -46 -3 -6 -11 -8 -16 -4 -5 3 -17 0 -26
-8 -9 -7 -18 -12 -20 -10 -2 1 -11 -2 -21 -8 -13 -8 -7 -10 26 -6 23 3 42 3
42 1 0 -3 -9 -19 -20 -37 -11 -18 -20 -37 -20 -42 0 -8 47 -4 88 9 l22 7 -17
-31 c-14 -24 -25 -31 -49 -31 -18 0 -34 -6 -37 -14 -3 -7 -26 -16 -52 -18 -60
-7 -85 -28 -33 -28 20 0 39 -4 43 -10 3 -5 13 -6 23 -3 15 6 15 5 3 -10 -17
-21 -10 -21 36 -2 44 19 53 19 53 1 0 -28 -133 -106 -179 -106 -17 0 -41 -18
-41 -30 0 -3 16 -6 35 -6 45 0 49 -5 32 -47 -19 -44 -34 -53 -55 -34 -19 18
-65 12 -83 -9 -6 -8 -20 -14 -30 -14 -11 0 -16 -5 -13 -13 6 -17 -21 -41 -36
-32 -7 4 -9 18 -6 31 6 23 4 24 -38 24 -26 0 -48 6 -53 13 -10 15 -57 37 -82
37 -9 0 -27 9 -38 19 -28 27 -35 16 -18 -26 8 -20 15 -57 15 -83 0 -40 3 -49
21 -53 12 -3 22 0 26 9 7 18 43 18 43 0 0 -21 -12 -26 -71 -28 -30 -1 -61 -7
-69 -13 -17 -14 -239 -54 -525 -95 -38 -6 -81 -13 -94 -16 -21 -4 -23 -3 -12
10 7 8 33 18 57 22 24 3 47 11 51 17 6 9 -56 4 -114 -10 l-23 -5 0 -814 0
-814 1345 0 1345 0 0 1740 0 1740 -30 0 c-30 0 -40 -13 -20 -25 7 -4 6 -11 -2
-20 -26 -29 -37 -40 -53 -54 -13 -10 -15 -26 -12 -72 5 -71 17 -87 57 -81 34
5 41 -15 14 -42 -19 -19 -26 -20 -43 -3 -11 10 -12 -11 -7 -117 4 -87 10 -133
19 -138 8 -5 7 -8 -5 -8 -14 0 -18 -8 -16 -41 1 -22 7 -47 15 -54 7 -8 14 -24
15 -37 2 -17 -1 -22 -15 -20 -15 3 -17 0 -8 -17 15 -27 14 -51 -2 -51 -9 0
-12 -11 -10 -32 2 -18 -2 -50 -9 -71 -8 -27 -9 -55 -2 -97 l10 -59 -26 6 c-14
3 -30 9 -36 14 -15 12 -199 32 -228 25 -20 -5 -24 -14 -30 -57 -4 -29 -13 -64
-20 -78 -7 -14 -19 -51 -27 -81 -17 -71 -21 -76 -66 -74 -38 1 -38 1 -35 40 1
21 4 48 6 59 3 11 5 26 5 33 1 6 10 12 22 12 11 0 17 4 14 10 -3 5 -15 10 -27
10 -15 0 -18 3 -11 12 6 7 11 62 12 121 2 99 -6 152 -30 199 -13 26 -11 30 10
23 18 -5 18 -3 10 36 -5 22 -7 56 -3 75 4 24 2 38 -10 49 -18 19 -22 40 -4 29
7 -4 8 -3 4 4 -4 6 -13 9 -20 6 -8 -3 -16 4 -19 15 -3 14 0 21 9 21 8 0 14 -4
14 -10 0 -5 5 -10 11 -10 14 0 6 128 -10 158 -17 32 -13 89 9 132 11 22 20 45
20 52 0 7 7 21 14 31 12 15 17 16 34 6 17 -10 24 -9 48 11 l29 23 -48 -7 c-45
-7 -47 -6 -44 16 3 17 17 28 58 44 59 23 144 73 136 80 -3 3 -22 -4 -43 -15
-21 -12 -46 -21 -56 -21 -9 0 -19 -4 -22 -9 -8 -12 -55 -20 -61 -11 -6 11 34
60 49 60 15 0 50 40 41 48 -3 3 -27 -2 -53 -11 -78 -28 -90 -21 -47 29 30 35
32 47 5 39 -27 -9 -27 21 0 35 24 13 26 30 5 30 -28 0 -15 17 25 35 56 25 30
39 -30 16 -60 -23 -71 -19 -56 20 9 26 8 32 -7 40 -27 16 -20 33 28 68 25 18
45 36 45 42 0 15 -26 11 -40 -7 -8 -8 -21 -19 -31 -25 -16 -8 -17 -6 -8 20 8
23 6 38 -10 71 -20 41 -20 42 0 79 26 51 40 99 29 106 -5 3 -11 -9 -15 -26 -6
-27 -9 -29 -23 -16 -29 24 -49 10 -57 -39 l-6 -44 -42 39 c-23 22 -45 37 -49
35 -18 -11 -5 -39 37 -81 44 -43 46 -47 39 -88 -6 -41 -5 -43 15 -38 33 8 27
-30 -11 -73 -31 -35 -32 -36 -17 -77 9 -27 21 -43 34 -45 33 -6 45 -22 45 -59
0 -32 -4 -36 -55 -59 -31 -13 -67 -24 -80 -24 -14 0 -43 -7 -66 -16 -35 -14
-42 -15 -51 -3 -7 11 -11 11 -15 1 -2 -6 -9 -10 -14 -6 -5 3 -9 -2 -9 -11 0
-10 -23 -25 -60 -42 -68 -29 -79 -47 -22 -37 l37 6 -26 -26 c-34 -36 -77 -28
-86 16 -10 48 -60 79 -140 84 -37 3 -77 6 -88 7 -32 3 -32 -39 -1 -64 33 -26
33 -40 0 -68 l-27 -23 6 30 c4 19 1 34 -7 41 -13 11 -16 8 -62 -51 -18 -24
-24 -26 -34 -13 -16 19 -4 54 31 87 30 28 35 43 20 67 -7 10 -12 8 -24 -10
-21 -29 -31 -19 -23 24 6 31 9 33 36 29 25 -4 37 2 64 31 58 62 53 162 -9 203
-32 21 -22 37 17 29 20 -5 35 -2 47 9 17 16 19 16 25 1 9 -26 48 -14 66 20 8
17 16 32 18 34 1 3 7 0 12 -5 7 -7 4 -16 -10 -29 -23 -21 -27 -63 -5 -71 11
-5 15 -21 15 -60 0 -71 -15 -69 -26 4 -8 52 -11 57 -35 60 -25 3 -29 -2 -47
-60 -11 -35 -22 -84 -25 -110 -4 -41 -2 -48 13 -48 11 0 21 12 27 33 7 24 14
31 29 29 26 -5 27 -7 34 -55 5 -36 9 -42 28 -40 13 2 22 -3 22 -11 0 -19 26
-27 54 -16 16 6 26 20 31 42 15 73 13 72 52 42 27 -21 37 -24 43 -13 7 10 11
10 24 0 13 -11 16 -11 16 1 0 8 9 23 20 33 11 10 20 15 20 11 0 -15 28 21 49
62 27 53 27 53 -9 41 -17 -6 -30 -15 -30 -21 0 -5 -5 -6 -10 -3 -14 9 -81 -14
-105 -36 -28 -25 -44 -11 -51 47 -4 27 -11 55 -17 61 -16 21 -28 3 -21 -33 7
-37 -9 -66 -31 -58 -8 3 -18 27 -24 52 -8 41 -7 50 9 67 10 11 28 40 39 65 11
25 28 56 38 70 l17 25 -22 -19 -22 -19 0 36 c0 48 -15 47 -40 -3 -11 -22 -23
-40 -25 -40 -3 0 -4 21 -2 47 2 38 -1 48 -15 51 -15 3 -18 -4 -18 -37 0 -40
-27 -111 -42 -111 -15 0 -8 75 13 130 25 68 34 110 23 110 -18 0 -52 -67 -69
-135 -9 -39 -21 -78 -26 -87 -16 -30 -28 -20 -19 14 6 20 6 36 0 43 -6 7 -7
26 -4 42 3 17 1 33 -4 37 -16 10 -53 -43 -47 -68 3 -12 -3 -34 -15 -51 l-21
-30 7 30 c14 58 11 68 -25 77 -28 8 -37 6 -57 -13 -13 -12 -24 -17 -24 -11 0
6 4 13 9 16 17 11 21 80 5 103 -18 28 -35 29 -59 3 -17 -19 -18 -19 -35 3 -21
26 -20 28 -46 -83 -9 -41 -18 -77 -20 -79 -2 -2 -15 4 -29 13 -14 9 -30 14
-35 11 -6 -3 -10 0 -10 8 0 8 -7 17 -15 21 -9 3 -15 0 -15 -8 0 -17 -32 -16
-43 1 -4 7 10 29 38 56 55 55 58 72 10 64 -43 -7 -46 8 -10 47 14 15 25 35 25
46 0 10 14 28 30 40 31 22 40 50 16 50 -24 0 -66 -41 -66 -65 0 -12 -7 -25
-15 -29 -9 -3 -15 0 -15 10 0 22 -27 28 -53 12 -12 -8 -33 -18 -47 -21 -22 -6
-28 0 -53 46 -28 54 -52 116 -67 177 -12 46 -13 140 -1 140 5 0 29 18 52 40
24 22 49 40 56 40 17 0 17 47 1 53 -7 3 8 6 33 6 25 1 54 7 64 15 10 7 27 11
36 9 15 -4 17 -9 8 -25 -15 -28 29 -90 125 -176 47 -42 172 -107 237 -122 27
-7 49 -16 49 -20 0 -4 8 -6 18 -3 10 2 24 -3 32 -11 11 -15 14 -15 24 -1 7 10
32 18 61 20 129 11 245 65 343 159 83 79 98 118 62 163 -15 20 -18 34 -13 69
4 30 1 49 -8 61 -13 16 -12 17 4 4 9 -7 17 -10 17 -5 0 4 5 3 12 -4 16 -16 43
-15 58 3 7 8 16 13 20 10 5 -3 16 2 24 11 9 9 16 11 16 4 0 -6 8 -9 18 -6 9 3
35 8 57 11 22 2 54 8 70 11 17 4 57 8 90 9 33 1 122 5 198 10 101 6 137 5 137
-4 0 -6 14 -11 30 -11 l30 0 0 90 c0 81 -2 90 -21 101 -15 8 -24 8 -32 0 -6
-6 -35 -11 -65 -11 -45 0 -55 3 -59 20 -3 11 -10 20 -16 20 -12 0 23 29 36 30
5 0 5 -9 2 -20 -6 -19 5 -27 18 -14 3 4 30 8 59 9 29 1 59 3 66 4 9 1 12 109
12 507 0 363 -3 503 -11 498 -6 -3 -9 -17 -6 -30 2 -13 -1 -32 -8 -41 -7 -9
-11 -23 -8 -30 8 -20 -7 -15 -27 9 -14 18 -16 28 -7 51 7 22 7 31 -4 38 -8 5
-83 9 -168 9 -147 0 -153 -1 -148 -20 3 -10 -1 -27 -9 -37 -7 -10 -14 -27 -14
-38 -1 -18 -2 -18 -10 3 -6 15 -18 22 -35 22 -14 0 -28 0 -32 0 -5 1 -10 -14
-13 -31 -3 -18 -11 -34 -19 -37 -10 -3 -11 3 -6 29 9 40 9 85 0 99 -3 5 -19
10 -35 10 -26 0 -28 -3 -34 -47 -3 -27 -6 -82 -7 -123 -1 -62 -3 -71 -12 -50
-6 14 -9 28 -9 33 1 4 -6 7 -17 7 -16 0 -19 -13 -25 -142 -5 -93 -11 -145 -19
-150 -20 -12 -25 20 -23 132 1 64 -2 117 -10 134 -8 22 -9 36 -1 53 11 25 1
46 -12 24 -7 -10 -10 -10 -13 -1 -3 10 -9 10 -26 -1 -20 -12 -24 -12 -32 1 -5
8 -10 10 -10 5 0 -6 -7 -20 -17 -31 -15 -19 -18 -20 -46 -6 -23 11 -28 20 -24
38 2 14 0 27 -4 30 -5 3 -9 15 -9 28 0 12 -6 31 -14 42 -12 15 -17 17 -27 7
-17 -17 -29 -16 -29 2 0 12 -20 15 -119 15 -134 0 -131 2 -131 -78 0 -26 -4
-53 -9 -60 -11 -18 -47 -10 -42 9 3 8 7 40 9 72 l4 57 -32 0 c-36 0 -69 -32
-70 -67 0 -13 -5 -23 -11 -23 -5 0 -7 5 -4 10 3 6 1 10 -5 10 -6 0 -15 12 -20
26 -6 14 -14 22 -20 19 -5 -3 -10 1 -10 9 0 14 -17 16 -106 16 l-106 0 2 -112
c3 -141 3 -140 -16 -164 -8 -10 -13 -14 -10 -7 11 21 -19 283 -32 283 -11 0
-39 -257 -30 -279 10 -29 -26 -56 -77 -56 -32 0 -42 4 -40 15 1 8 -1 22 -6 32
-5 9 -11 42 -14 75 -3 32 -8 65 -10 73 -2 8 -7 40 -10 70 -4 30 -10 59 -14 63
-4 4 -55 6 -112 5 l-104 -3 -7 -75 c-4 -50 -11 -78 -22 -86 -9 -6 -16 -19 -16
-28 0 -10 -3 -15 -7 -13 -5 3 -9 -9 -10 -26 -3 -51 -4 -81 -3 -97 1 -33 -11
-236 -15 -247 -2 -7 1 -13 7 -13 7 0 6 -5 -2 -15 -8 -9 -10 -40 -8 -89 3 -54
1 -77 -8 -80 -10 -4 -12 39 -8 207 6 245 -10 472 -33 482 -8 3 -19 3 -24 -1
-5 -3 -9 -1 -9 5 0 5 -9 13 -21 16 -23 8 -63 -21 -52 -38 4 -6 0 -8 -10 -4
-11 4 -14 2 -10 -8 3 -8 10 -12 17 -9 6 3 3 -1 -6 -8 -9 -8 -19 -31 -23 -51
-4 -21 -12 -40 -18 -44 -6 -4 -7 -1 -2 7 5 9 4 11 -3 6 -7 -4 -12 -25 -12 -47
0 -30 4 -39 18 -39 16 -1 16 -2 0 -13 -12 -9 -13 -18 -7 -30 7 -12 4 -25 -8
-44 -21 -32 -24 -70 -6 -77 8 -3 13 -22 13 -45 0 -22 5 -43 10 -46 6 -3 10
-36 10 -73 l-1 -67 -15 34 c-8 19 -12 43 -8 53 5 17 2 19 -26 16 -33 -3 -33
-4 -75 84 -10 21 -21 35 -26 32 -8 -5 -5 19 6 49 4 9 3 17 -3 17 -5 0 -12 14
-14 30 -3 17 -1 30 4 30 4 0 8 5 8 11 0 5 -5 7 -10 4 -6 -3 -10 0 -10 8 0 7
-10 24 -23 37 -12 14 -21 26 -19 27 1 2 2 4 1 6 0 1 -3 16 -5 32 -2 17 -9 49
-14 73 -6 24 -8 47 -5 51 2 5 -2 14 -10 21 -8 7 -15 20 -15 29 0 10 -7 26 -15
37 -13 17 -14 -163 -15 -1508z m1555 1312 c3 -5 -3 -15 -15 -22 -25 -16 -26
-30 -1 -26 13 2 34 -15 66 -54 38 -46 46 -63 41 -83 -6 -23 -26 -36 -26 -16 0
4 -11 6 -25 3 -29 -5 -33 12 -8 40 9 10 11 18 6 18 -6 0 -13 -7 -17 -15 -8
-23 -46 -19 -46 5 0 11 -4 20 -10 20 -5 0 -10 9 -10 21 0 11 -5 17 -10 14 -14
-9 -24 21 -14 43 4 9 8 22 9 27 2 31 45 49 60 25z m-595 -321 c0 -16 5 -18 25
-13 15 4 25 2 25 -5 0 -6 -3 -10 -7 -9 -5 0 -16 -2 -26 -7 -12 -5 -22 -2 -31
11 -12 16 -16 16 -31 4 -12 -10 -15 -22 -10 -44 4 -17 8 -44 10 -61 2 -16 4
-34 5 -40 8 -37 -2 -96 -16 -102 -25 -10 -45 25 -43 77 1 25 -1 76 -4 115 -8
86 3 102 63 97 31 -3 40 -8 40 -23z m1159 -276 c6 -21 11 -46 11 -56 0 -16 6
-18 38 -13 20 3 76 8 124 12 70 5 91 3 109 -10 29 -20 23 -22 -121 -36 -63 -6
-131 -13 -151 -16 l-35 -6 -13 72 c-11 61 -11 74 0 81 23 14 28 11 38 -28z
m-1760 -841 c31 -12 32 -14 15 -26 -20 -14 -148 -32 -199 -28 -59 4 -80 3
-105 -4 -22 -7 -23 -6 -10 8 24 23 56 38 84 38 14 0 26 5 26 11 0 5 3 8 8 5 4
-2 23 -1 42 4 49 11 99 9 139 -8z m181 -40 c-28 -22 -36 -54 -12 -45 9 4 13 2
9 -4 -10 -16 21 -24 35 -9 19 19 97 29 114 15 20 -16 8 -29 -27 -29 -17 0 -28
-4 -24 -10 3 -5 -9 -13 -27 -18 l-33 -9 32 -7 c18 -4 37 -5 42 -2 5 4 12 2 15
-3 4 -5 2 -12 -2 -15 -5 -3 -8 -26 -7 -51 2 -25 0 -45 -4 -45 -9 0 -61 60 -61
71 0 5 -12 12 -27 15 -15 4 -36 18 -46 31 -10 13 -27 23 -37 23 -9 0 -23 7
-30 15 -9 10 -30 16 -59 16 -25 -1 -59 0 -76 0 -29 0 -70 -7 -179 -30 -47 -10
-78 -7 -42 4 9 3 24 8 34 12 9 3 22 7 27 8 6 0 17 4 25 7 31 13 107 30 150 34
121 11 149 16 159 27 5 7 24 14 42 15 l32 3 -23 -19z m733 -578 c45 -6 46 -7
32 -28 -11 -14 -15 -47 -15 -108 l0 -88 -27 12 c-16 7 -45 25 -65 41 -21 16
-43 25 -48 22 -7 -4 -14 2 -17 14 -3 12 -13 21 -23 21 -10 0 -20 6 -23 13 -3
8 -19 14 -37 15 -38 1 -102 46 -94 67 4 11 29 15 97 18 51 1 110 4 133 5 23 1
62 -1 87 -4z m-673 -154 c30 -22 72 -51 93 -65 42 -29 41 -45 -4 -45 -44 0
-32 -21 24 -40 60 -21 63 -24 20 -28 -55 -4 -73 -24 -33 -37 39 -12 9 -23 -51
-19 -35 3 -84 15 -114 29 -57 26 -112 85 -99 107 34 60 90 138 99 138 5 0 35
-18 65 -40z m349 -52 c12 -10 21 -25 21 -33 0 -8 9 -19 21 -25 11 -7 18 -18
15 -25 -2 -7 -1 -29 4 -47 10 -36 71 -89 148 -127 43 -22 43 -23 26 -42 -12
-14 -25 -18 -39 -14 -35 11 -99 26 -120 29 -30 4 -90 65 -110 113 -10 23 -22
40 -25 38 -10 -6 7 -104 20 -120 7 -8 9 -23 5 -34 -4 -14 -1 -21 12 -24 15 -4
15 -5 2 -6 -30 -2 -75 62 -83 116 -8 62 9 120 30 102 12 -10 14 -1 14 54 0 36
5 78 11 94 l12 28 8 -29 c4 -16 17 -37 28 -48z m1008 -147 c2 -10 16 -24 29
-30 29 -13 30 -30 6 -62 -20 -26 -45 -109 -32 -109 4 0 15 10 26 21 41 46 102
41 89 -8 -17 -71 -71 -124 -188 -188 -54 -30 -75 -36 -103 -32 -27 5 -37 2
-47 -14 -8 -12 -23 -19 -44 -19 -17 0 -35 -4 -38 -10 -13 -22 -34 -9 -41 26
-8 45 7 64 38 45 18 -11 22 -11 30 2 15 27 39 47 56 47 15 -1 15 -3 -2 -15
-29 -22 -12 -30 34 -16 23 7 40 18 40 27 0 8 7 17 15 20 25 10 17 21 -21 29
-20 3 -45 11 -55 18 -13 8 -32 8 -68 1 -49 -10 -56 -8 -52 19 0 4 -4 7 -9 7
-5 0 -10 4 -10 9 0 4 12 7 28 5 15 -2 46 8 71 22 60 33 74 32 66 -7 -7 -29 -6
-30 14 -20 14 8 21 21 21 41 0 17 5 30 10 30 6 0 10 -7 8 -16 -5 -27 17 -27
29 -1 12 25 6 114 -8 123 -17 10 -9 43 13 58 32 23 89 21 95 -3z m-847 -661
c0 -11 7 -20 15 -20 9 0 27 -7 40 -16 13 -9 29 -13 35 -9 5 3 10 -1 10 -10 0
-8 7 -18 16 -22 8 -3 20 -16 25 -30 5 -13 20 -28 34 -33 36 -14 159 -136 151
-149 -19 -30 -105 2 -163 59 -12 12 -27 19 -32 15 -6 -3 -16 6 -22 22 -5 15
-28 49 -49 75 -22 25 -45 58 -51 72 -7 14 -16 26 -21 26 -4 0 -8 9 -8 20 0 11
5 20 10 20 6 0 10 -9 10 -20z m736 -2 c-8 -13 -27 -43 -41 -68 -24 -41 -96
-105 -137 -122 -10 -4 -20 -19 -24 -33 -7 -30 -24 -34 -24 -5 0 16 -4 18 -22
11 -62 -23 -88 -29 -94 -20 -3 5 -23 6 -45 3 -37 -6 -39 -5 -39 18 0 17 -18
42 -61 83 -108 103 -116 140 -21 95 74 -36 143 -47 160 -27 7 8 22 12 37 9 14
-2 31 0 38 6 6 6 28 10 48 10 34 0 35 -1 31 -31 -2 -19 -15 -41 -30 -54 -26
-22 -27 -23 -5 -23 17 0 28 11 40 37 10 21 28 42 40 49 13 6 31 18 40 26 10 9
28 19 40 22 11 4 24 13 27 21 3 8 17 15 32 15 25 0 26 -1 10 -22z m-783 -1172
c3 -8 14 -12 25 -10 21 6 47 -20 37 -36 -4 -6 -14 -9 -22 -6 -8 3 -28 -1 -44
-10 -17 -8 -45 -14 -62 -13 -18 2 -38 0 -44 -4 -21 -13 -223 -4 -223 10 0 6
-3 19 -7 29 -5 14 -2 16 15 12 11 -3 31 1 43 10 20 14 23 14 35 -3 12 -16 23
-17 91 -11 53 5 86 13 103 26 30 23 46 25 53 6z m-577 -13 c-12 -3 -15 -7 -7
-12 6 -4 44 -2 84 5 72 12 131 9 121 -7 -2 -5 -27 -11 -53 -15 -38 -5 -51 -12
-59 -29 -9 -19 -21 -24 -80 -30 -38 -4 -75 -11 -83 -16 -17 -11 -20 -10 69
-13 39 -1 72 1 72 5 0 4 17 9 38 12 20 3 48 8 62 12 16 5 22 4 15 -2 -19 -19
-220 -62 -250 -54 -5 1 -35 -2 -65 -8 -55 -11 -150 -20 -150 -15 0 13 55 54
79 59 16 3 35 13 41 21 13 14 -9 14 -107 -2 -20 -3 -33 -1 -33 6 0 5 10 10 23
10 22 1 81 29 62 30 -30 2 33 21 87 26 35 4 70 10 78 15 8 5 29 8 45 8 19 -1
23 -3 11 -6z m654 -107 c0 -15 -32 -75 -46 -87 -9 -7 -25 -33 -35 -56 -10 -24
-38 -63 -63 -88 -46 -45 -66 -75 -66 -95 0 -18 80 32 107 67 24 32 90 70 101
59 8 -9 -29 -115 -43 -124 -7 -4 -24 -28 -39 -54 -16 -27 -34 -48 -42 -48 -8
0 -14 -7 -14 -15 0 -18 1 -18 36 0 43 22 64 19 64 -8 0 -13 5 -28 12 -35 9 -9
11 -42 9 -105 -4 -122 -4 -126 -11 -125 -17 1 -29 -4 -50 -24 -19 -18 -24 -19
-34 -7 -9 12 -27 13 -91 9 -56 -5 -83 -3 -90 5 -18 21 -56 36 -83 34 -49 -6
-55 9 -17 46 39 39 42 40 64 21 9 -7 26 -17 39 -20 18 -6 22 -4 22 16 0 18 -8
26 -32 33 -19 6 -34 18 -36 28 -4 17 2 18 69 13 40 -4 76 -10 79 -15 11 -19
56 -23 69 -7 9 11 22 14 38 10 24 -6 24 -5 13 16 -7 13 -27 38 -45 55 -25 25
-38 32 -59 28 -22 -5 -26 -2 -26 20 0 16 -7 26 -20 30 -10 3 -27 23 -37 46
-15 34 -22 41 -39 37 -28 -7 -34 0 -24 34 7 24 4 34 -20 58 -20 22 -32 27 -44
20 -12 -7 -16 -5 -16 10 0 21 12 26 92 37 35 5 47 12 51 27 6 20 8 20 52 2 6
-3 18 3 27 13 62 67 149 142 166 143 6 0 12 -2 12 -4z m-224 -27 c3 -6 17 -9
30 -6 15 2 21 0 17 -7 -4 -5 -6 -25 -5 -43 2 -18 -2 -33 -8 -33 -6 0 -8 11 -4
28 6 24 5 25 -8 14 -18 -15 -71 -32 -108 -37 -14 -1 -32 -5 -40 -9 -9 -4 -25
2 -37 14 -12 11 -27 20 -33 20 -12 0 -13 20 -2 37 8 13 14 14 99 16 28 1 55 5
59 10 11 10 32 9 40 -4z m-74 -784 c-2 -19 34 -52 44 -42 3 3 21 1 40 -3 28
-7 36 -5 45 11 10 19 39 27 39 10 0 -21 -23 -71 -33 -73 -60 -8 -108 -2 -156
18 -29 13 -60 24 -67 24 -8 0 -14 7 -14 15 0 8 3 14 8 14 26 -4 44 4 54 26 14
30 44 30 40 0z m52 -224 c20 -8 25 -21 28 -83 1 -20 6 -34 10 -32 10 6 10 1 2
-20 -4 -11 -14 -14 -33 -11 -20 4 -22 3 -7 -3 14 -6 16 -11 8 -16 -7 -4 -12
-16 -12 -27 0 -11 -4 -17 -10 -14 -5 3 -10 14 -10 23 0 14 -8 17 -40 15 -38
-2 -60 9 -41 21 5 4 8 17 5 31 -3 15 6 46 21 75 26 50 38 57 79 41z"/>
<path d="M1711 3966 c-8 -10 -10 -42 -5 -107 6 -76 9 -89 19 -75 7 9 33 23 57
32 48 16 82 45 92 81 5 17 1 26 -18 39 -14 9 -33 13 -42 10 -11 -4 -22 1 -31
14 -16 23 -55 26 -72 6z"/>
<path d="M680 3150 c-9 -6 -48 -8 -95 -5 l-80 5 48 -25 c44 -24 48 -29 45 -58
-2 -27 -8 -33 -31 -35 -27 -3 -28 -4 -12 -22 16 -18 16 -19 -9 -26 l-27 -6 21
-35 c11 -19 20 -36 20 -38 0 -2 -13 -6 -30 -10 -44 -10 -46 -24 -4 -41 41 -17
48 -12 60 36 4 14 17 36 30 50 29 32 47 76 45 118 0 23 7 40 24 56 36 34 32
61 -5 36z"/>
<path d="M296 2740 c-10 -17 -21 -43 -25 -58 -12 -40 14 -219 34 -242 25 -27
78 -50 117 -50 55 0 82 20 94 69 5 24 17 48 25 55 22 17 21 64 -2 71 -24 8
-24 18 1 83 27 72 27 75 -17 68 -24 -4 -67 1 -117 14 -44 11 -82 20 -85 20 -4
0 -15 -14 -25 -30z"/>
<path d="M80 2000 l-75 -5 -3 -117 -3 -118 33 7 c18 3 47 13 63 22 l30 16 -25
3 c-14 2 -31 11 -38 22 -10 17 -6 20 43 35 30 8 68 18 85 21 38 8 28 27 -11
22 -35 -5 -61 18 -38 33 9 7 -8 8 -56 4 -57 -4 -66 -3 -50 6 11 7 23 16 26 21
3 5 39 11 79 13 40 2 77 8 83 14 11 11 1 11 -143 1z"/>
</g>
</svg>
